# xmcd CD database file
#
# Track frame offsets:
#	150
#	12796
#	28123
#	43901
#	60668
#	75208
#	89838
#	110899
#	124843
#	138143
#	154362
#	167017
#	187930
#	220420
#	253773
#	276375
#	298009
#
# Disc length: 4183 seconds
#
# Revision: 0
# Processed by: cddbd v1.5.2PL0 Copyright (c) Steve Scherf et al.
# Submitted via: CDex 1.70beta2
#
DISCID=fc105511
DTITLE=Ben Webster - Jazz Giants Disc 2
DYEAR=1900
DGENRE=Jazz
TTITLE0=Main Stem: Duke Ellington and His Famous Orchestra 
TTITLE1=Bojangles: Duke Ellington and His Famous Orchestra
TTITLE2=Sleep: Sidney Catlett Quartet
TTITLE3=Memories of You: Sidney Catlett Quartet
TTITLE4=Honeysuckle Rose: Ben Webster Quartet 
TTITLE5=Blue Skies: Ben Webster Quartet
TTITLE6=Conversing in Blue: Benny Morton’s All Stars 
TTITLE7=I Can’t Get Started: Teddy Wilson Sextet 
TTITLE8=Time Out for the Blues: Benny Carter and His All Stars 
TTITLE9=Danny Boy: Ben Webster’s Quintet
TTITLE10=Pennies from Heaven: Ben Webster Orchestra
TTITLE11=Willow Weep for Me: Ben Webster with Ralph Burns Orchestra
TTITLE12=My Ideal: Art Tatum‑Ben Webster Quartet
TTITLE13=Easy on the Eye: Red Norvo Sextet
TTITLE14=Rosita: Ben Webster‑Coleman Hawkins
TTITLE15=Shine On Harvest Moon: Ben Webster‑Coleman Hawkins 
TTITLE16=Please Mr. Webster: Jimmy Witherspoon featuring Ben Webster 
EXTD=
EXTT0=
EXTT1=
EXTT2=
EXTT3=
EXTT4=
EXTT5=
EXTT6=
EXTT7=
EXTT8=
EXTT9=
EXTT10=
EXTT11=
EXTT12=
EXTT13=
EXTT14=
EXTT15=
EXTT16=
PLAYORDER=
